# File created by Blade
# Date/Time:  Thu Jan 22 16:36:26 2015
# Frame Rate: 120.000 fps
#------------------------------------------------------
:FULLY-SPECIFIED
:DEGREES
3186
root 6.256160 19.415416 26.621141 -2.915366 -17.012925 -14.531180
RightUpLeg -47.598919 0.335212 -2.144122
RightLeg 131.519543 -0.000000 -0.000000
RightFoot -13.584488 12.764413 21.611567
RightToeBase -402.007853 -0.000000 0.000000
LeftUpLeg -7.977599 5.659879 15.213601
LeftLeg 121.305440 -0.000000 -0.000000
LeftFoot 3.212883 -4.141239 -20.610638
LeftToeBase 9.335995 -0.000000 -0.000000
Spine 33.271639 -6.083593 7.272671
RightShoulder 4.208458 -21.107191 -18.551158
RightArm 14.643821 -17.208216 60.805029
RightForeArm 17.405107 -0.000000 66.845778
RightHand 7.692953 -0.000000 -15.570722
RightHandThumb1 -24.326973 -0.000000 -32.862282
LeftShoulder -20.053193 32.320628 -1.321792
LeftArm 44.165914 7.955773 -72.739095
LeftForeArm 10.596604 0.000000 78.532960
LeftHand -18.023021 -0.000000 0.397855
LeftHandThumb1 -26.253704 0.000000 33.147579
Head 10.886088 25.175209 -11.632507
3187
root 6.251453 19.463167 26.762620 -2.948235 -16.573806 -14.643415
RightUpLeg -47.587353 0.345679 -2.239497
RightLeg 131.617975 -0.000000 -0.000000
RightFoot -12.320200 12.568293 21.887557
RightToeBase -400.522334 -0.000000 0.000000
LeftUpLeg -7.609858 5.480304 15.163801
LeftLeg 120.979864 -0.000000 -0.000000
LeftFoot 2.492947 -3.500498 -20.736818
LeftToeBase 8.793648 -0.000000 -0.000000
Spine 32.697692 -6.175172 7.220702
RightShoulder 4.051686 -21.258489 -18.625112
RightArm 14.151485 -17.071431 60.737475
RightForeArm 17.483655 -0.000000 67.084345
RightHand 7.521095 -0.000000 -15.377076
RightHandThumb1 -24.326973 -0.000000 -32.862282
LeftShoulder -20.249980 32.447338 -1.430078
LeftArm 44.211549 8.055419 -72.535274
LeftForeArm 10.224108 0.000000 80.247936
LeftHand -17.874242 -0.000000 -0.195949
LeftHandThumb1 -26.253704 0.000000 33.147579
Head 11.314186 25.042236 -11.322821
3188
root 6.243979 19.510714 26.915592 -3.093920 -16.244887 -14.656110
RightUpLeg -47.573526 0.456844 -2.393854
RightLeg 131.752726 -0.000000 -0.000000
RightFoot -11.062790 12.066207 21.447766
RightToeBase -399.157587 -0.000000 0.000000
LeftUpLeg -7.062810 5.456468 15.040829
LeftLeg 120.566297 -0.000000 -0.000000
LeftFoot 1.779993 -2.851387 -20.760061
LeftToeBase 10.013272 -0.000000 -0.000000
Spine 32.230710 -6.138600 7.023902
RightShoulder 3.904103 -21.382356 -18.623590
RightArm 13.633988 -16.890800 60.720836
RightForeArm 17.689301 -0.000000 67.228997
RightHand 7.640531 -0.000000 -15.168313
RightHandThumb1 -24.326973 -0.000000 -32.862282
LeftShoulder -20.444562 32.554845 -1.495359
LeftArm 44.245681 8.203435 -72.298716
LeftForeArm 10.078099 -0.000000 81.876797
LeftHand -17.928155 -0.000000 -0.536746
LeftHandThumb1 -26.253704 0.000000 33.147579
Head 11.778768 24.890641 -10.879182
3189
root 6.237826 19.557840 27.063621 -3.204570 -15.894395 -14.702315
RightUpLeg -47.674997 0.593199 -2.568280
RightLeg 131.919343 -0.000000 -0.000000
RightFoot -9.649342 11.759515 21.760990
RightToeBase -396.861037 -0.000000 0.000000
LeftUpLeg -6.561115 5.341436 14.955842
LeftLeg 120.181042 -0.000000 -0.000000
LeftFoot 0.993427 -2.213399 -21.307191
LeftToeBase 10.460521 -0.000000 -0.000000
Spine 31.751031 -6.139725 6.910089
RightShoulder 3.704685 -21.492641 -18.637076
RightArm 13.150832 -16.753909 60.719013
RightForeArm 17.804365 -0.000000 67.370820
RightHand 7.489386 -0.000000 -15.172737
RightHandThumb1 -24.326973 -0.000000 -32.862282
LeftShoulder -20.570710 32.616367 -1.569491
LeftArm 44.192504 8.332281 -72.043909
LeftForeArm 10.026113 0.000000 83.403277
LeftHand -17.800030 -0.000000 -1.048251
LeftHandThumb1 -26.253704 0.000000 33.147579
Head 12.215409 24.697523 -10.546317
3190
root 6.234209 19.602195 27.207479 -3.289038 -15.495397 -14.734427
RightUpLeg -47.907897 0.647897 -2.731906
RightLeg 132.097456 -0.000000 -0.000000
RightFoot -8.087498 11.205551 21.801275
RightToeBase -394.772272 -0.000000 0.000000
LeftUpLeg -6.119058 5.215207 14.849420
LeftLeg 119.777520 -0.000000 -0.000000
LeftFoot 0.254338 -1.569026 -21.541746
LeftToeBase 11.999236 -0.000000 -0.000000
Spine 31.242667 -6.197852 6.782992
RightShoulder 3.514147 -21.678440 -18.616254
RightArm 12.723337 -16.545777 60.712460
RightForeArm 17.938626 -0.000000 67.489870
RightHand 7.508326 0.000000 -15.210858
RightHandThumb1 -24.326973 -0.000000 -32.862282
LeftShoulder -20.684844 32.727524 -1.643989
LeftArm 44.162640 8.504701 -71.747179
LeftForeArm 10.036568 0.000000 84.842076
LeftHand -17.804860 -0.000000 -1.320952
LeftHandThumb1 -26.253704 0.000000 33.147579
Head 12.671866 24.522284 -10.164620
